# xmcd
#
# Track frame offsets:
#       150
#       23799
#       44880
#       72482
#       94142
#       121211
#       147342
#       166947
#       192134
#       212714
#       239726
#       268955
#       293999
#       315917
#
# Disc length: 4761 seconds
#
# Revision: 0
# Processed by: cddbd v1.5.1PL2 Copyright (c) Steve Scherf et al.
# Submitted via: WaveLab 4.01
#
DISCID=db12970e
DTITLE=Timewarp Music - Timewarp - Dub My Funky Groove - Chill dubs n mellow cuts
DYEAR=2005
DGENRE=
TTITLE0=You can't be me feat. Lilian
TTITLE1=Phatmatrix lounge
TTITLE2=Top5 feat. Rxn
TTITLE3=Nu shit year
TTITLE4=Nothing special
TTITLE5=If i was a funkey
TTITLE6=Flamenco
TTITLE7=Dub trap
TTITLE8=Tig7
TTITLE9=Heat in
TTITLE10=Epic tones feat. Rxn
TTITLE11=Alone and nowhere
TTITLE12=Kareta
TTITLE13=In dub
EXTD=
EXTT0=
EXTT1=
EXTT2=
EXTT3=
EXTT4=
EXTT5=
EXTT6=
EXTT7=
EXTT8=
EXTT9=
EXTT10=
EXTT11=
EXTT12=
EXTT13=
PLAYORDER=
